<svg height="512" viewBox="0 0 64 64" width="512" xmlns="http://www.w3.org/2000/svg"><g id="_21-insurance" data-name="21-insurance"><rect fill="#f2f6fc" height="62" rx="4" width="46" x="9" y="1"/><path d="m9 52v7h-6-2v-7h2z" fill="#65b1fc"/><path d="m9 55v4h-6-2v-4h2z" fill="#4a98f7"/><path d="m63 52v7h-2-6v-7h6z" fill="#65b1fc"/><path d="m63 55v4h-2-6v-4h6z" fill="#4a98f7"/><path d="m13 63h-10v-4h6a4 4 0 0 0 4 4z" fill="#65b1fc"/><path d="m61 59v4h-10a4 4 0 0 0 4-4z" fill="#65b1fc"/><path d="m9 19v8.29c-2.61.76-4.53 2.94-5.83 5.04l2.83-11.33z" fill="#faa68e"/><path d="m60.83 32.33c-1.3-2.1-3.22-4.28-5.83-5.04v-8.29l3 2z" fill="#faa68e"/><path d="m9 41.48v10.52h-6v-3a1.959 1.959 0 0 1 -2-2v-10a21.866 21.866 0 0 1 2.17-4.67c1.3-2.1 3.22-4.28 5.83-5.04a6.858 6.858 0 0 1 2-.29h7a3 3 0 0 1 0 6h-4s0 6.58-5 8.48z" fill="#ffdecf"/><path d="m6 41.48v10.52h3v-10.52c5-1.9 5-8.48 5-8.48h-3s0 6.58-5 8.48z" fill="#ffcdbe"/><path d="m18 27h-3a3 3 0 0 1 0 6h3a3 3 0 0 0 0-6z" fill="#ffcdbe"/><path d="m61 49v3h-6v-10.52c-5-1.9-5-8.48-5-8.48h-4a3 3 0 0 1 0-6h7a6.858 6.858 0 0 1 2 .29c2.61.76 4.53 2.94 5.83 5.04a21.866 21.866 0 0 1 2.17 4.67v10a1.959 1.959 0 0 1 -2 2z" fill="#ffdecf"/><path d="m46 30a3 3 0 0 1 3-3h-3a3 3 0 0 0 0 6h3a3 3 0 0 1 -3-3z" fill="#ffcdbe"/><path d="m53 33h-3s0 6.58 5 8.48v10.52h3v-10.52c-5-1.9-5-8.48-5-8.48z" fill="#ffcdbe"/><path d="m44 21s-2 7-12 12c-10-5-12-12-12-12v-8a6 6 0 0 0 6-6h12a6 6 0 0 0 6 6z" fill="#d2eb5a"/><path d="m38 7h-3a6 6 0 0 0 6 6v8s-1.807 6.281-10.5 11.193c.482.273.974.544 1.5.807 10-5 12-12 12-12v-8a6 6 0 0 1 -6-6z" fill="#b4d241"/><path d="m28 18h8v6h-8z" fill="#65b1fc"/><path d="m36 18h-2v-2a2 2 0 0 0 -4 0v2h-2v-2a4 4 0 0 1 8 0z" fill="#f2f6fc"/><path d="m31 18h2v3h-2z" fill="#4a98f7"/><g fill="#9c9c9c"><path d="m20 40h2v2h-2z"/><path d="m24 40h20v2h-20z"/><path d="m18 44h28v2h-28z"/></g><path d="m16 49h14v6h-14z" fill="#65b1fc"/><path d="m34 49h14v6h-14z" fill="#ff936b"/><path d="m16 52h14v3h-14z" fill="#4a98f7"/><path d="m34 52h14v3h-14z" fill="#ff7045"/><path d="m64 47v-10a.992.992 0 0 0 -.042-.287 22.649 22.649 0 0 0 -2.2-4.81l-2.788-11.145a1 1 0 0 0 -.415-.59l-2.555-1.703v-13.465a5.006 5.006 0 0 0 -5-5h-38a5.006 5.006 0 0 0 -5 5v13.465l-2.555 1.7a1 1 0 0 0 -.415.59l-2.784 11.145a22.649 22.649 0 0 0 -2.2 4.81.992.992 0 0 0 -.046.29v10a2.818 2.818 0 0 0 2 2.833v1.167h-1a1 1 0 0 0 -1 1v7a1 1 0 0 0 1 1h1v3h2v-3h4.1a5.009 5.009 0 0 0 4.9 4h38a5.009 5.009 0 0 0 4.9-4h4.1v3h2v-3h1a1 1 0 0 0 1-1v-7a1 1 0 0 0 -1-1h-1v-1.167a2.818 2.818 0 0 0 2-2.833zm-2 0a.915.915 0 0 1 -1 1 1 1 0 0 0 -1 1v2h-4v-8.2a10.081 10.081 0 0 0 2 .2v-2c-6.891 0-7-7.675-7-8a1 1 0 0 0 -1-1h-4a2 2 0 0 1 0-4h7c5.761 0 8.625 8.023 9 9.156zm-4.876-25.383 1.669 6.683a9.649 9.649 0 0 0 -2.793-1.727v-5.705zm-50.248 0 1.124-.749v5.705a9.649 9.649 0 0 0 -2.793 1.727zm-4.876 15.539c.375-1.133 3.239-9.156 9-9.156h7a2 2 0 0 1 0 4h-4a1 1 0 0 0 -1 1c0 .327-.109 8-7 8v2a10.081 10.081 0 0 0 2-.2v8.2h-4v-2a1.012 1.012 0 0 0 -.988-1 .918.918 0 0 1 -1.012-1zm0 15.844h6v5h-6zm49 9h-38a3 3 0 0 1 -3-3v-16.866c3.412-1.672 4.7-5.426 4.952-8.134h3.048a4 4 0 0 0 0-8h-7a8.151 8.151 0 0 0 -1 .067v-21.067a3 3 0 0 1 3-3h38a3 3 0 0 1 3 3v21.067a8.151 8.151 0 0 0 -1-.067h-7a4 4 0 0 0 0 8h3.048c.251 2.708 1.54 6.462 4.952 8.134v16.866a3 3 0 0 1 -3 3zm11-4h-6v-5h6z"/><path d="m31.553 33.9a1 1 0 0 0 .894 0c10.276-5.138 12.428-12.317 12.514-12.621a.97.97 0 0 0 .039-.279v-8a1 1 0 0 0 -1-1 5.006 5.006 0 0 1 -5-5 1 1 0 0 0 -1-1h-12a1 1 0 0 0 -1 1 5.006 5.006 0 0 1 -5 5 1 1 0 0 0 -1 1v8a.97.97 0 0 0 .039.274c.086.304 2.238 7.483 12.514 12.626zm-10.553-19.971a7.016 7.016 0 0 0 5.929-5.929h10.142a7.016 7.016 0 0 0 5.929 5.929v6.915c-.308.893-2.573 6.662-11 11.034-8.379-4.35-10.688-10.15-11-11.037z"/><path d="m28 25h8a1 1 0 0 0 1-1v-6a1 1 0 0 0 -1-1v-1a4 4 0 0 0 -8 0v1a1 1 0 0 0 -1 1v6a1 1 0 0 0 1 1zm7-2h-6v-4h2v2h2v-2h2zm-5-7a2 2 0 0 1 4 0v1h-4z"/><path d="m20 40h2v2h-2z"/><path d="m24 40h20v2h-20z"/><path d="m18 44h28v2h-28z"/><path d="m30 48h-14a1 1 0 0 0 -1 1v6a1 1 0 0 0 1 1h14a1 1 0 0 0 1-1v-6a1 1 0 0 0 -1-1zm-1 6h-12v-4h12z"/><path d="m48 48h-14a1 1 0 0 0 -1 1v6a1 1 0 0 0 1 1h14a1 1 0 0 0 1-1v-6a1 1 0 0 0 -1-1zm-1 6h-12v-4h12z"/></g></svg>